<svg xmlns="http://www.w3.org/2000/svg" width="105" height="28" viewBox="0 0 105 28" fill="none"><path fill-rule="evenodd" clip-rule="evenodd" d="M0 0C5 8.15839e-06 16 0.499961 25 12.5C28.2225 17.4949 38.112 27.3187 52.5 27.9663C66.8879 27.3187 76.7775 17.4949 80 12.5C89 0.499961 100 8.15839e-06 105 0H0Z" fill="url(#paint0_linear_194_8)"></path><path fill-rule="evenodd" clip-rule="evenodd" d="M42.0858 6.58579C42.8668 5.80474 44.1332 5.80474 44.9142 6.58579L52 13.6716L59.0858 6.58579C59.8668 5.80474 61.1332 5.80474 61.9142 6.58579C62.6953 7.36683 62.6953 8.63316 61.9142 9.41421L54.1213 17.2071C52.9497 18.3787 51.0502 18.3787 49.8787 17.2071L42.0858 9.41421C41.3047 8.63316 41.3047 7.36683 42.0858 6.58579Z" fill="white"></path><defs><linearGradient id="paint0_linear_194_8" x1="103.278" y1="-0.578854" x2="91.8466" y2="45.5743" gradientUnits="userSpaceOnUse"><stop offset="0.15" stop-color="#22A7F0"></stop><stop offset="0.88" stop-color="#5946F0"></stop></linearGradient></defs></svg>