<svg xmlns="http://www.w3.org/2000/svg" width="105" height="28" viewBox="0 0 105 28" fill="none"><path fill-rule="evenodd" clip-rule="evenodd" d="M0 0C5 8.15839e-06 16 0.499961 25 12.5C28.2225 17.4949 38.112 27.3187 52.5 27.9663C66.8879 27.3187 76.7775 17.4949 80 12.5C89 0.499961 100 8.15839e-06 105 0H0Z" fill="#0D141E"></path><path fill-rule="evenodd" clip-rule="evenodd" d="M42.5858 5.58579C43.3668 4.80474 44.6332 4.80474 45.4142 5.58579L53 13.1716L60.5858 5.58579C61.3668 4.80474 62.6332 4.80474 63.4142 5.58579C64.1953 6.36683 64.1953 7.63316 63.4142 8.41421L54.4142 17.4142C53.6332 18.1953 52.3668 18.1953 51.5858 17.4142L42.5858 8.41421C41.8047 7.63316 41.8047 6.36683 42.5858 5.58579Z" fill="white"></path></svg>