<svg xmlns="http://www.w3.org/2000/svg" width="97" height="86" viewBox="0 0 97 86" fill="none"><path d="M93.0639 0H3.00603C0.241104 0 -1.05181 3.42283 1.02263 5.2508L91.0805 84.6087C93.018 86.316 96.0639 84.9403 96.0639 82.3579V3C96.0639 1.34315 94.7207 0 93.0639 0Z" fill="url(#paint0_linear_274_2)"></path><path d="M66.1193 12.7174C66.4306 11.8218 67.6971 11.8218 68.0084 12.7174L70.5972 20.165C70.7345 20.5601 71.1032 20.8279 71.5214 20.8365L79.4045 20.9971C80.3524 21.0164 80.7438 22.221 79.9883 22.7938L73.7051 27.5573C73.3718 27.81 73.231 28.2434 73.3521 28.6438L75.6353 36.1907C75.9099 37.0982 74.8853 37.8426 74.107 37.3011L67.635 32.7975C67.2917 32.5586 66.836 32.5586 66.4927 32.7975L60.0207 37.3011C59.2425 37.8426 58.2178 37.0982 58.4924 36.1907L60.7756 28.6438C60.8967 28.2434 60.7559 27.81 60.4226 27.5573L54.1395 22.7938C53.3839 22.221 53.7753 21.0164 54.7232 20.9971L62.6063 20.8365C63.0245 20.8279 63.3932 20.5601 63.5305 20.165L66.1193 12.7174Z" fill="#0E1520"></path><defs><linearGradient id="paint0_linear_274_2" x1="83.2553" y1="64.0228" x2="4.27706" y2="8.68367" gradientUnits="userSpaceOnUse"><stop stop-color="#878787"></stop><stop offset="0.283823" stop-color="#FEFEFE"></stop><stop offset="0.49" stop-color="#B0AEAE"></stop><stop offset="0.688662" stop-color="#E7E8EA"></stop><stop offset="1" stop-color="#797979"></stop></linearGradient></defs></svg>