<svg xmlns="http://www.w3.org/2000/svg" width="213" height="41" viewBox="0 0 213 41" fill="none"><path d="M0 20.5C0 9.17816 9.17816 0 20.5 0H192.5C203.822 0 213 9.17816 213 20.5C213 31.8218 203.822 41 192.5 41H20.5C9.17817 41 0 31.8218 0 20.5Z" fill="#171A28"></path><path d="M6 20.5C6 11.9396 12.9396 5 21.5 5C30.0604 5 37 11.9396 37 20.5C37 29.0604 30.0604 36 21.5 36C12.9396 36 6 29.0604 6 20.5Z" fill="url(#paint0_linear_196_3)"></path><path d="M12 28.3427C12.1352 28.0516 12.3674 27.9589 12.6897 27.9589C18.2299 27.9655 23.7724 27.9655 29.3125 27.9589C29.6326 27.9589 29.8715 28.0427 30 28.3427V28.6184C29.867 28.914 29.6304 29 29.3103 29C23.7769 28.9934 18.2434 28.9934 12.71 29C12.3832 29 12.142 28.914 12 28.6184V28.3427Z" fill="white"></path><path d="M17.9144 16.6792C17.3035 17.2791 16.695 17.8725 16.0932 18.4746C16.0571 18.5099 16.0616 18.6114 16.0819 18.6687C16.3817 19.4958 15.9038 20.4244 15.0496 20.6736C14.3982 20.8633 13.7153 20.6339 13.3253 20.0936C12.9286 19.5421 12.9264 18.8165 13.3231 18.2937C13.7355 17.7489 14.4388 17.5218 15.0879 17.7401C15.2412 17.7908 15.3268 17.7622 15.4328 17.6563C16.003 17.0872 16.58 16.5248 17.1593 15.9646C17.2337 15.8918 17.2585 15.8278 17.2337 15.7264C17.0826 15.1088 17.3396 14.4625 17.8783 14.0986C18.4035 13.7435 19.1044 13.7391 19.6296 14.0876C20.1728 14.4471 20.4365 15.0845 20.299 15.7065C20.2878 15.7572 20.2742 15.8058 20.2585 15.8741C20.7476 16.1234 21.2367 16.3748 21.7258 16.6241C22.2171 15.8036 23.272 15.5808 24.0721 16.0881C24.1262 16.0241 24.1781 15.9469 24.2434 15.8807C24.7844 15.3492 25.3276 14.8176 25.8708 14.2883C25.9406 14.2221 25.9632 14.1692 25.9271 14.0677C25.6183 13.2251 26.1119 12.2921 26.9887 12.0539C27.8497 11.8201 28.7716 12.3715 28.9452 13.2229C29.1277 14.1228 28.5169 14.9522 27.5883 15.0713C27.2817 15.111 26.9955 15.0514 26.7092 14.9301C26.3373 15.294 25.9654 15.658 25.5913 16.0241C25.3095 16.2998 25.0255 16.5711 24.7506 16.8534C24.7055 16.8998 24.6784 16.9924 24.6897 17.0564C24.8295 17.8438 24.3291 18.6334 23.5515 18.8385C22.7671 19.0459 21.9489 18.6312 21.6649 17.8769C21.6221 17.7644 21.5567 17.7004 21.453 17.6475C20.8648 17.3519 20.281 17.0497 19.6927 16.7542C19.6386 16.7277 19.553 16.7145 19.5034 16.7388C18.9715 16.9902 18.453 16.9681 17.9166 16.6792H17.9144Z" fill="white"></path><path d="M28.9023 26.9289H25.8144C25.8144 26.8627 25.8144 26.8032 25.8144 26.7414C25.8144 23.7549 25.8144 20.7663 25.8144 17.7798C25.8144 17.374 26.0128 17.1733 26.4252 17.1733C27.0518 17.1711 27.6784 17.1689 28.305 17.1733C28.6927 17.1755 28.9023 17.3828 28.9023 17.7622C28.9023 20.7663 28.9023 23.7704 28.9023 26.7745V26.9289Z" fill="white"></path><path d="M20.3644 26.9289H17.2742C17.2742 26.8627 17.2742 26.8032 17.2742 26.7414C17.2742 24.5049 17.2742 22.2705 17.2742 20.034C17.2742 19.6193 17.4726 19.4252 17.8986 19.4252C18.5319 19.4252 19.163 19.4252 19.7964 19.4252C20.1503 19.4252 20.3644 19.637 20.3644 19.9855C20.3644 22.2551 20.3644 24.5269 20.3644 26.7965C20.3644 26.8363 20.3644 26.8737 20.3644 26.9289Z" fill="white"></path><path d="M21.5432 26.9245C21.5432 26.8605 21.5432 26.7988 21.5432 26.737C21.5432 24.9438 21.5432 23.1484 21.5432 21.3552C21.5432 20.9163 21.7348 20.731 22.1878 20.731C22.8144 20.731 23.441 20.731 24.0676 20.731C24.417 20.731 24.6266 20.9361 24.6266 21.2758C24.6266 23.1219 24.6266 24.9659 24.6266 26.812C24.6266 26.8451 24.6221 26.8782 24.6198 26.9223H21.5432V26.9245Z" fill="white"></path><path d="M16.0864 26.9289H13.0098C13.0098 26.8627 13.0098 26.801 13.0098 26.7414C13.0098 25.3783 13.0098 24.013 13.0098 22.6499C13.0098 22.2286 13.2014 22.0389 13.6273 22.0389C14.2539 22.0389 14.8805 22.0389 15.5071 22.0389C15.8813 22.0389 16.0909 22.2352 16.0909 22.5992C16.0932 24.0086 16.0909 25.418 16.0909 26.8274C16.0909 26.8561 16.0864 26.8826 16.0819 26.9289H16.0864Z" fill="white"></path><path d="M50.88 27.304C49.8773 27.304 48.992 27.1387 48.224 26.808C47.4667 26.4667 46.8267 26.0133 46.304 25.448C45.792 24.872 45.4027 24.2267 45.136 23.512C44.88 22.7867 44.752 22.0347 44.752 21.256V20.904C44.752 20.168 44.88 19.448 45.136 18.744C45.392 18.04 45.7653 17.4053 46.256 16.84C46.7573 16.2747 47.3707 15.8267 48.096 15.496C48.832 15.1547 49.6747 14.984 50.624 14.984C51.648 14.984 52.5547 15.176 53.344 15.56C54.1333 15.9333 54.768 16.4613 55.248 17.144C55.728 17.816 56.0107 18.6 56.096 19.496H53.808C53.7333 18.9947 53.5467 18.568 53.248 18.216C52.9493 17.8533 52.5707 17.576 52.112 17.384C51.664 17.192 51.168 17.096 50.624 17.096C50.08 17.096 49.584 17.192 49.136 17.384C48.6987 17.576 48.3253 17.848 48.016 18.2C47.7067 18.552 47.4667 18.9733 47.296 19.464C47.136 19.9547 47.056 20.4987 47.056 21.096C47.056 21.7467 47.1467 22.328 47.328 22.84C47.5093 23.352 47.7653 23.7893 48.096 24.152C48.4267 24.504 48.8267 24.776 49.296 24.968C49.7653 25.1493 50.2933 25.24 50.88 25.24C51.6587 25.24 52.3413 25.08 52.928 24.76C53.5147 24.4293 53.9413 24.0027 54.208 23.48L53.808 25.32V22.312H55.904V24.904C55.4027 25.6613 54.72 26.2533 53.856 26.68C52.992 27.096 52 27.304 50.88 27.304ZM50.512 22.76V21.064H56.88V22.76H50.512Z" fill="#22A7F0"></path><path d="M62.4645 27.304C61.7178 27.304 61.0618 27.176 60.4965 26.92C59.9418 26.664 59.4778 26.3227 59.1045 25.896C58.7418 25.4587 58.4645 24.9733 58.2725 24.44C58.0912 23.9067 58.0005 23.3627 58.0005 22.808V22.504C58.0005 21.928 58.0912 21.3733 58.2725 20.84C58.4645 20.296 58.7418 19.816 59.1045 19.4C59.4778 18.9733 59.9365 18.6373 60.4805 18.392C61.0245 18.136 61.6538 18.008 62.3685 18.008C63.3072 18.008 64.0912 18.216 64.7205 18.632C65.3605 19.0373 65.8405 19.576 66.1605 20.248C66.4805 20.9093 66.6405 21.624 66.6405 22.392V23.192H58.9445V21.832H65.2485L64.5605 22.504C64.5605 21.9493 64.4805 21.4747 64.3205 21.08C64.1605 20.6853 63.9152 20.3813 63.5845 20.168C63.2645 19.9547 62.8592 19.848 62.3685 19.848C61.8778 19.848 61.4618 19.96 61.1205 20.184C60.7792 20.408 60.5178 20.7333 60.3365 21.16C60.1658 21.576 60.0805 22.0773 60.0805 22.664C60.0805 23.208 60.1658 23.6933 60.3365 24.12C60.5072 24.536 60.7685 24.8667 61.1205 25.112C61.4725 25.3467 61.9205 25.464 62.4645 25.464C63.0085 25.464 63.4512 25.3573 63.7925 25.144C64.1338 24.92 64.3525 24.648 64.4485 24.328H66.4965C66.3685 24.9253 66.1232 25.448 65.7605 25.896C65.3978 26.344 64.9338 26.6907 64.3685 26.936C63.8138 27.1813 63.1792 27.304 62.4645 27.304Z" fill="#22A7F0"></path><path d="M71.6504 27.272C70.4557 27.272 69.517 27.0213 68.8344 26.52C68.1624 26.008 67.8104 25.304 67.7784 24.408H69.7784C69.8104 24.7067 69.9757 24.9787 70.2744 25.224C70.573 25.4693 71.0424 25.592 71.6824 25.592C72.2157 25.592 72.637 25.496 72.9464 25.304C73.2664 25.112 73.4264 24.8507 73.4264 24.52C73.4264 24.232 73.3037 24.0027 73.0584 23.832C72.8237 23.6613 72.4184 23.5493 71.8424 23.496L71.0744 23.416C70.1037 23.3093 69.357 23.032 68.8344 22.584C68.3117 22.136 68.0504 21.5387 68.0504 20.792C68.0504 20.1947 68.1997 19.6933 68.4984 19.288C68.797 18.8827 69.2077 18.5787 69.7304 18.376C70.2637 18.1627 70.8717 18.056 71.5544 18.056C72.621 18.056 73.485 18.2907 74.1464 18.76C74.8077 19.2293 75.1544 19.9173 75.1864 20.824H73.1864C73.165 20.5253 73.0157 20.2693 72.7384 20.056C72.461 19.8427 72.061 19.736 71.5384 19.736C71.069 19.736 70.7064 19.8267 70.4504 20.008C70.1944 20.1893 70.0664 20.424 70.0664 20.712C70.0664 20.9893 70.1677 21.2027 70.3704 21.352C70.5837 21.5013 70.925 21.6027 71.3944 21.656L72.1624 21.736C73.1864 21.8427 73.9864 22.1253 74.5624 22.584C75.149 23.0427 75.4424 23.6613 75.4424 24.44C75.4424 25.016 75.2824 25.5173 74.9624 25.944C74.653 26.36 74.2157 26.6853 73.6504 26.92C73.085 27.1547 72.4184 27.272 71.6504 27.272Z" fill="#22A7F0"></path><path d="M81.0556 27.112C80.2556 27.112 79.5943 27.0107 79.0716 26.808C78.5596 26.5947 78.1756 26.2427 77.9196 25.752C77.6636 25.2507 77.5356 24.5787 77.5356 23.736L77.5516 15.864H79.6316L79.6156 23.88C79.6156 24.3067 79.7276 24.6373 79.9516 24.872C80.1863 25.096 80.517 25.208 80.9436 25.208H82.3036V27.112H81.0556ZM76.1596 19.944V18.312H82.3036V19.944H76.1596Z" fill="#22A7F0"></path><path d="M88.2994 27.304C87.5314 27.304 86.854 27.1813 86.2674 26.936C85.6807 26.6907 85.1847 26.36 84.7794 25.944C84.374 25.5173 84.0647 25.0373 83.8514 24.504C83.6487 23.9707 83.5474 23.416 83.5474 22.84V22.504C83.5474 21.9067 83.654 21.3413 83.8674 20.808C84.0914 20.264 84.406 19.784 84.8114 19.368C85.2274 18.9413 85.7287 18.6107 86.3154 18.376C86.902 18.1307 87.5634 18.008 88.2994 18.008C89.0354 18.008 89.6967 18.1307 90.2834 18.376C90.87 18.6107 91.366 18.9413 91.7714 19.368C92.1874 19.784 92.502 20.264 92.7154 20.808C92.9287 21.3413 93.0354 21.9067 93.0354 22.504V22.84C93.0354 23.416 92.9287 23.9707 92.7154 24.504C92.5127 25.0373 92.2087 25.5173 91.8034 25.944C91.398 26.36 90.902 26.6907 90.3154 26.936C89.7287 27.1813 89.0567 27.304 88.2994 27.304ZM88.2994 25.4C88.8434 25.4 89.302 25.2827 89.6754 25.048C90.0487 24.8027 90.3314 24.4773 90.5234 24.072C90.7154 23.656 90.8114 23.1867 90.8114 22.664C90.8114 22.1307 90.71 21.6613 90.5074 21.256C90.3154 20.84 90.0274 20.5147 89.6434 20.28C89.27 20.0347 88.822 19.912 88.2994 19.912C87.7767 19.912 87.3234 20.0347 86.9394 20.28C86.566 20.5147 86.278 20.84 86.0754 21.256C85.8727 21.6613 85.7714 22.1307 85.7714 22.664C85.7714 23.1867 85.8674 23.656 86.0594 24.072C86.262 24.4773 86.55 24.8027 86.9234 25.048C87.2967 25.2827 87.7554 25.4 88.2994 25.4Z" fill="#22A7F0"></path><path d="M94.9827 27V18.312H96.7428V21.992H96.6947C96.6947 20.744 96.9614 19.8 97.4948 19.16C98.0281 18.52 98.8121 18.2 99.8467 18.2H100.167V20.136H99.5587C98.8121 20.136 98.2308 20.3387 97.8148 20.744C97.4094 21.1387 97.2067 21.7147 97.2067 22.472V27H94.9827Z" fill="#22A7F0"></path><path d="M108.708 27.288C108.1 27.288 107.54 27.176 107.028 26.952C106.516 26.728 106.073 26.4133 105.7 26.008C105.326 25.6027 105.038 25.1333 104.836 24.6C104.633 24.056 104.532 23.4693 104.532 22.84V22.504C104.532 21.8853 104.628 21.304 104.82 20.76C105.022 20.216 105.3 19.7413 105.652 19.336C106.014 18.9307 106.446 18.616 106.948 18.392C107.46 18.1573 108.025 18.04 108.644 18.04C109.326 18.04 109.924 18.1893 110.436 18.488C110.958 18.776 111.374 19.2133 111.684 19.8C111.993 20.3867 112.164 21.1227 112.196 22.008L111.54 21.24V15.32H113.764V27H112.004V23.304H112.388C112.356 24.1893 112.174 24.9307 111.844 25.528C111.513 26.1147 111.076 26.5573 110.532 26.856C109.998 27.144 109.39 27.288 108.708 27.288ZM109.204 25.416C109.641 25.416 110.041 25.32 110.404 25.128C110.766 24.9253 111.054 24.6373 111.268 24.264C111.492 23.88 111.604 23.432 111.604 22.92V22.28C111.604 21.768 111.492 21.3413 111.268 21C111.044 20.648 110.75 20.3813 110.388 20.2C110.025 20.008 109.63 19.912 109.204 19.912C108.724 19.912 108.297 20.0293 107.924 20.264C107.561 20.488 107.273 20.808 107.06 21.224C106.857 21.64 106.756 22.1253 106.756 22.68C106.756 23.2347 106.862 23.72 107.076 24.136C107.289 24.5413 107.577 24.856 107.94 25.08C108.313 25.304 108.734 25.416 109.204 25.416Z" fill="#22A7F0"></path><path d="M120.183 27.304C119.437 27.304 118.781 27.176 118.215 26.92C117.661 26.664 117.197 26.3227 116.823 25.896C116.461 25.4587 116.183 24.9733 115.991 24.44C115.81 23.9067 115.719 23.3627 115.719 22.808V22.504C115.719 21.928 115.81 21.3733 115.991 20.84C116.183 20.296 116.461 19.816 116.823 19.4C117.197 18.9733 117.655 18.6373 118.199 18.392C118.743 18.136 119.373 18.008 120.087 18.008C121.026 18.008 121.81 18.216 122.439 18.632C123.079 19.0373 123.559 19.576 123.879 20.248C124.199 20.9093 124.359 21.624 124.359 22.392V23.192H116.663V21.832H122.967L122.279 22.504C122.279 21.9493 122.199 21.4747 122.039 21.08C121.879 20.6853 121.634 20.3813 121.303 20.168C120.983 19.9547 120.578 19.848 120.087 19.848C119.597 19.848 119.181 19.96 118.839 20.184C118.498 20.408 118.237 20.7333 118.055 21.16C117.885 21.576 117.799 22.0773 117.799 22.664C117.799 23.208 117.885 23.6933 118.055 24.12C118.226 24.536 118.487 24.8667 118.839 25.112C119.191 25.3467 119.639 25.464 120.183 25.464C120.727 25.464 121.17 25.3573 121.511 25.144C121.853 24.92 122.071 24.648 122.167 24.328H124.215C124.087 24.9253 123.842 25.448 123.479 25.896C123.117 26.344 122.653 26.6907 122.087 26.936C121.533 27.1813 120.898 27.304 120.183 27.304Z" fill="#22A7F0"></path><path d="M132.15 27V17H134.422V27H132.15ZM128.774 17.32V15.32H137.798V17.32H128.774Z" fill="#22A7F0"></path><path d="M138.92 27V18.312H140.68V21.992H140.632C140.632 20.744 140.899 19.8 141.432 19.16C141.966 18.52 142.75 18.2 143.784 18.2H144.104V20.136H143.496C142.75 20.136 142.168 20.3387 141.752 20.744C141.347 21.1387 141.144 21.7147 141.144 22.472V27H138.92Z" fill="#22A7F0"></path><path d="M150.809 27V24.424H150.441V21.56C150.441 21.0587 150.319 20.6853 150.073 20.44C149.828 20.1947 149.449 20.072 148.937 20.072C148.671 20.072 148.351 20.0773 147.977 20.088C147.604 20.0987 147.225 20.1147 146.841 20.136C146.468 20.1467 146.132 20.1627 145.833 20.184V18.296C146.079 18.2747 146.356 18.2533 146.665 18.232C146.975 18.2107 147.289 18.2 147.609 18.2C147.94 18.1893 148.249 18.184 148.537 18.184C149.433 18.184 150.175 18.3013 150.761 18.536C151.359 18.7707 151.807 19.1387 152.105 19.64C152.415 20.1413 152.569 20.7973 152.569 21.608V27H150.809ZM148.009 27.224C147.38 27.224 146.825 27.112 146.345 26.888C145.876 26.664 145.508 26.344 145.241 25.928C144.985 25.512 144.857 25.0107 144.857 24.424C144.857 23.784 145.012 23.2613 145.321 22.856C145.641 22.4507 146.084 22.1467 146.649 21.944C147.225 21.7413 147.897 21.64 148.665 21.64H150.681V22.968H148.633C148.121 22.968 147.727 23.096 147.449 23.352C147.183 23.5973 147.049 23.9173 147.049 24.312C147.049 24.7067 147.183 25.0267 147.449 25.272C147.727 25.5173 148.121 25.64 148.633 25.64C148.943 25.64 149.225 25.5867 149.481 25.48C149.748 25.3627 149.967 25.1707 150.137 24.904C150.319 24.6267 150.42 24.2533 150.441 23.784L150.985 24.408C150.932 25.016 150.783 25.528 150.537 25.944C150.303 26.36 149.972 26.68 149.545 26.904C149.129 27.1173 148.617 27.224 148.009 27.224ZM147.769 17.208L149.193 13.928H151.497L149.673 17.208H147.769Z" fill="#22A7F0"></path><path d="M155.16 27V18.104C155.16 17.112 155.431 16.3813 155.975 15.912C156.53 15.432 157.346 15.192 158.423 15.192H159.512V16.904H158.264C157.933 16.904 157.677 16.9947 157.495 17.176C157.325 17.3467 157.24 17.592 157.24 17.912V27H155.16ZM154.072 20.088V18.456H159.656V20.088H154.072Z" fill="#22A7F0"></path><path d="M164.886 27.304C164.14 27.304 163.484 27.176 162.918 26.92C162.364 26.664 161.9 26.3227 161.526 25.896C161.164 25.4587 160.886 24.9733 160.694 24.44C160.513 23.9067 160.422 23.3627 160.422 22.808V22.504C160.422 21.928 160.513 21.3733 160.694 20.84C160.886 20.296 161.164 19.816 161.526 19.4C161.9 18.9733 162.358 18.6373 162.902 18.392C163.446 18.136 164.076 18.008 164.79 18.008C165.729 18.008 166.513 18.216 167.142 18.632C167.782 19.0373 168.262 19.576 168.582 20.248C168.902 20.9093 169.062 21.624 169.062 22.392V23.192H161.366V21.832H167.67L166.982 22.504C166.982 21.9493 166.902 21.4747 166.742 21.08C166.582 20.6853 166.337 20.3813 166.006 20.168C165.686 19.9547 165.281 19.848 164.79 19.848C164.3 19.848 163.884 19.96 163.542 20.184C163.201 20.408 162.94 20.7333 162.758 21.16C162.588 21.576 162.502 22.0773 162.502 22.664C162.502 23.208 162.588 23.6933 162.758 24.12C162.929 24.536 163.19 24.8667 163.542 25.112C163.894 25.3467 164.342 25.464 164.886 25.464C165.43 25.464 165.873 25.3573 166.214 25.144C166.556 24.92 166.774 24.648 166.87 24.328H168.918C168.79 24.9253 168.545 25.448 168.182 25.896C167.82 26.344 167.356 26.6907 166.79 26.936C166.236 27.1813 165.601 27.304 164.886 27.304Z" fill="#22A7F0"></path><path d="M174.312 30.424C173.896 30.424 173.47 30.408 173.032 30.376C172.606 30.344 172.206 30.3013 171.832 30.248V28.392C172.216 28.4347 172.627 28.472 173.064 28.504C173.502 28.5467 173.912 28.568 174.296 28.568C175.011 28.568 175.587 28.4827 176.024 28.312C176.472 28.1413 176.798 27.8693 177 27.496C177.214 27.1333 177.32 26.6693 177.32 26.104V24.392L177.8 23.304C177.768 24.104 177.603 24.7867 177.304 25.352C177.006 25.9067 176.6 26.3333 176.088 26.632C175.576 26.92 174.984 27.064 174.312 27.064C173.715 27.064 173.171 26.952 172.68 26.728C172.2 26.504 171.784 26.1947 171.432 25.8C171.091 25.4053 170.824 24.9413 170.632 24.408C170.44 23.8747 170.344 23.304 170.344 22.696V22.36C170.344 21.752 170.44 21.1867 170.632 20.664C170.835 20.1307 171.118 19.6667 171.48 19.272C171.843 18.8773 172.275 18.5733 172.776 18.36C173.278 18.1467 173.832 18.04 174.44 18.04C175.155 18.04 175.774 18.1947 176.296 18.504C176.83 18.8133 177.246 19.2613 177.544 19.848C177.843 20.4347 178.008 21.1547 178.04 22.008L177.656 22.072V18.312H179.416V25.976C179.416 27.032 179.235 27.8853 178.872 28.536C178.51 29.1867 177.95 29.6613 177.192 29.96C176.446 30.2693 175.486 30.424 174.312 30.424ZM174.952 25.16C175.379 25.16 175.768 25.064 176.12 24.872C176.472 24.68 176.755 24.4027 176.968 24.04C177.182 23.6773 177.288 23.24 177.288 22.728V22.168C177.288 21.6773 177.176 21.2613 176.952 20.92C176.739 20.5787 176.456 20.3227 176.104 20.152C175.752 19.9707 175.368 19.88 174.952 19.88C174.483 19.88 174.067 19.992 173.704 20.216C173.352 20.4293 173.075 20.7333 172.872 21.128C172.67 21.5227 172.568 21.992 172.568 22.536C172.568 23.0693 172.67 23.5333 172.872 23.928C173.075 24.3227 173.352 24.6267 173.704 24.84C174.067 25.0533 174.483 25.16 174.952 25.16Z" fill="#22A7F0"></path><path d="M186.018 27.304C185.25 27.304 184.573 27.1813 183.986 26.936C183.399 26.6907 182.903 26.36 182.498 25.944C182.093 25.5173 181.783 25.0373 181.57 24.504C181.367 23.9707 181.266 23.416 181.266 22.84V22.504C181.266 21.9067 181.373 21.3413 181.586 20.808C181.81 20.264 182.125 19.784 182.53 19.368C182.946 18.9413 183.447 18.6107 184.034 18.376C184.621 18.1307 185.282 18.008 186.018 18.008C186.754 18.008 187.415 18.1307 188.002 18.376C188.589 18.6107 189.085 18.9413 189.49 19.368C189.906 19.784 190.221 20.264 190.434 20.808C190.647 21.3413 190.754 21.9067 190.754 22.504V22.84C190.754 23.416 190.647 23.9707 190.434 24.504C190.231 25.0373 189.927 25.5173 189.522 25.944C189.117 26.36 188.621 26.6907 188.034 26.936C187.447 27.1813 186.775 27.304 186.018 27.304ZM186.018 25.4C186.562 25.4 187.021 25.2827 187.394 25.048C187.767 24.8027 188.05 24.4773 188.242 24.072C188.434 23.656 188.53 23.1867 188.53 22.664C188.53 22.1307 188.429 21.6613 188.226 21.256C188.034 20.84 187.746 20.5147 187.362 20.28C186.989 20.0347 186.541 19.912 186.018 19.912C185.495 19.912 185.042 20.0347 184.658 20.28C184.285 20.5147 183.997 20.84 183.794 21.256C183.591 21.6613 183.49 22.1307 183.49 22.664C183.49 23.1867 183.586 23.656 183.778 24.072C183.981 24.4773 184.269 24.8027 184.642 25.048C185.015 25.2827 185.474 25.4 186.018 25.4Z" fill="#22A7F0"></path><defs><linearGradient id="paint0_linear_196_3" x1="209.507" y1="-0.847608" x2="197.08" y2="68.6582" gradientUnits="userSpaceOnUse"><stop offset="0.15" stop-color="#22A7F0"></stop><stop offset="0.88" stop-color="#5946F0"></stop></linearGradient></defs></svg>