<svg xmlns="http://www.w3.org/2000/svg" width="198" height="41" viewBox="0 0 198 41" fill="none"><path d="M0 20.5C0 9.17816 9.17816 0 20.5 0H177.5C188.822 0 198 9.17816 198 20.5C198 31.8218 188.822 41 177.5 41H20.5C9.17816 41 0 31.8218 0 20.5Z" fill="#171A28"></path><path d="M6 20.5C6 11.9396 12.9396 5 21.5 5C30.0604 5 37 11.9396 37 20.5C37 29.0604 30.0604 36 21.5 36C12.9396 36 6 29.0604 6 20.5Z" fill="url(#paint0_linear_196_6)"></path><path d="M13.7772 13H29.2101C29.6746 13 29.8843 13.2273 29.8843 13.7313V25.2984H13.1105V13.7396C13.1105 13.2314 13.3184 13 13.7772 13Z" fill="white"></path><path d="M12.7285 26.5318C18.5845 26.54 24.4422 26.542 30.2982 26.5297L30.3001 26.5318C30.7682 26.5318 31.0847 26.8437 30.9799 27.4449C30.8207 28.3642 30.1653 28.9984 29.3169 28.9984C24.1089 29.0005 18.9028 29.0005 13.6948 28.9984C12.8652 28.9984 12.221 28.4158 12.0337 27.5151C12.0262 27.4759 12.0112 27.4387 12 27.3994V26.9883C12.1442 26.6433 12.3876 26.5318 12.7285 26.5318Z" fill="white"></path><path d="M22.1465 18H20.3535V17H23.8535V20.5H22.8535V18.7072L19.7071 21.8536L19 21.1465L22.1465 18Z" fill="url(#paint1_linear_196_6)"></path><path d="M46.472 27V15.32H48.744V27H46.472Z" fill="#22A7F0"></path><path d="M51.4827 27V18.312H53.2428V22.04H53.0827C53.0827 21.1547 53.2001 20.4187 53.4347 19.832C53.6694 19.2347 54.0161 18.7867 54.4748 18.488C54.9441 18.1893 55.5254 18.04 56.2188 18.04H56.3148C57.3494 18.04 58.1334 18.376 58.6667 19.048C59.2001 19.7093 59.4668 20.7013 59.4668 22.024V27H57.2428V21.832C57.2428 21.2987 57.0881 20.8667 56.7788 20.536C56.4801 20.2053 56.0641 20.04 55.5308 20.04C54.9868 20.04 54.5441 20.2107 54.2028 20.552C53.8721 20.8827 53.7067 21.3307 53.7067 21.896V27H51.4827Z" fill="#22A7F0"></path><path d="M62.0658 27V18.104C62.0658 17.112 62.3378 16.3813 62.8818 15.912C63.4364 15.432 64.2524 15.192 65.3298 15.192H66.4177V16.904H65.1698C64.8391 16.904 64.5831 16.9947 64.4017 17.176C64.2311 17.3467 64.1458 17.592 64.1458 17.912V27H62.0658ZM60.9777 20.088V18.456H66.5618V20.088H60.9777Z" fill="#22A7F0"></path><path d="M72.0806 27.304C71.3126 27.304 70.6353 27.1813 70.0486 26.936C69.462 26.6907 68.966 26.36 68.5606 25.944C68.1553 25.5173 67.846 25.0373 67.6326 24.504C67.43 23.9707 67.3286 23.416 67.3286 22.84V22.504C67.3286 21.9067 67.4353 21.3413 67.6486 20.808C67.8726 20.264 68.1873 19.784 68.5926 19.368C69.0086 18.9413 69.51 18.6107 70.0966 18.376C70.6833 18.1307 71.3446 18.008 72.0806 18.008C72.8166 18.008 73.478 18.1307 74.0646 18.376C74.6513 18.6107 75.1473 18.9413 75.5526 19.368C75.9686 19.784 76.2833 20.264 76.4966 20.808C76.71 21.3413 76.8166 21.9067 76.8166 22.504V22.84C76.8166 23.416 76.71 23.9707 76.4966 24.504C76.294 25.0373 75.99 25.5173 75.5846 25.944C75.1793 26.36 74.6833 26.6907 74.0966 26.936C73.51 27.1813 72.838 27.304 72.0806 27.304ZM72.0806 25.4C72.6246 25.4 73.0833 25.2827 73.4566 25.048C73.83 24.8027 74.1126 24.4773 74.3046 24.072C74.4966 23.656 74.5926 23.1867 74.5926 22.664C74.5926 22.1307 74.4913 21.6613 74.2886 21.256C74.0966 20.84 73.8086 20.5147 73.4246 20.28C73.0513 20.0347 72.6033 19.912 72.0806 19.912C71.558 19.912 71.1046 20.0347 70.7206 20.28C70.3473 20.5147 70.0593 20.84 69.8566 21.256C69.654 21.6613 69.5526 22.1307 69.5526 22.664C69.5526 23.1867 69.6486 23.656 69.8406 24.072C70.0433 24.4773 70.3313 24.8027 70.7046 25.048C71.078 25.2827 71.5366 25.4 72.0806 25.4Z" fill="#22A7F0"></path><path d="M78.764 30.2V18.312H80.524V22.056L80.252 22.04C80.2947 21.1547 80.476 20.4133 80.796 19.816C81.1267 19.2187 81.564 18.776 82.108 18.488C82.652 18.1893 83.26 18.04 83.932 18.04C84.5507 18.04 85.1053 18.152 85.596 18.376C86.0973 18.6 86.524 18.9147 86.876 19.32C87.2387 19.7253 87.516 20.2 87.708 20.744C87.9 21.2773 87.996 21.8533 87.996 22.472V22.808C87.996 23.4373 87.9 24.024 87.708 24.568C87.5267 25.1013 87.2547 25.576 86.892 25.992C86.54 26.3973 86.1133 26.7173 85.612 26.952C85.1107 27.176 84.5507 27.288 83.932 27.288C83.2813 27.288 82.684 27.1547 82.14 26.888C81.6067 26.6107 81.1747 26.1893 80.844 25.624C80.5133 25.048 80.3267 24.3067 80.284 23.4L80.988 24.472V30.2H78.764ZM83.372 25.416C83.852 25.416 84.268 25.2987 84.62 25.064C84.9827 24.8293 85.2653 24.504 85.468 24.088C85.6707 23.6613 85.772 23.1813 85.772 22.648C85.772 22.0933 85.6707 21.6133 85.468 21.208C85.2653 20.8027 84.9827 20.488 84.62 20.264C84.268 20.0293 83.852 19.912 83.372 19.912C82.9347 19.912 82.5293 20.008 82.156 20.2C81.7933 20.392 81.4947 20.6747 81.26 21.048C81.036 21.4213 80.924 21.8693 80.924 22.392V23.032C80.924 23.5333 81.0413 23.96 81.276 24.312C81.5107 24.664 81.8147 24.936 82.188 25.128C82.5613 25.32 82.956 25.416 83.372 25.416Z" fill="#22A7F0"></path><path d="M89.9515 27V18.312H91.7115V21.992H91.6635C91.6635 20.744 91.9302 19.8 92.4635 19.16C92.9968 18.52 93.7808 18.2 94.8155 18.2H95.1355V20.136H94.5275C93.7808 20.136 93.1995 20.3387 92.7835 20.744C92.3782 21.1387 92.1755 21.7147 92.1755 22.472V27H89.9515Z" fill="#22A7F0"></path><path d="M100.737 27.304C99.9689 27.304 99.2915 27.1813 98.7049 26.936C98.1182 26.6907 97.6222 26.36 97.2169 25.944C96.8115 25.5173 96.5022 25.0373 96.2889 24.504C96.0862 23.9707 95.9849 23.416 95.9849 22.84V22.504C95.9849 21.9067 96.0915 21.3413 96.3049 20.808C96.5289 20.264 96.8435 19.784 97.2489 19.368C97.6649 18.9413 98.1662 18.6107 98.7529 18.376C99.3395 18.1307 100.001 18.008 100.737 18.008C101.473 18.008 102.134 18.1307 102.721 18.376C103.308 18.6107 103.804 18.9413 104.209 19.368C104.625 19.784 104.94 20.264 105.153 20.808C105.366 21.3413 105.473 21.9067 105.473 22.504V22.84C105.473 23.416 105.366 23.9707 105.153 24.504C104.95 25.0373 104.646 25.5173 104.241 25.944C103.836 26.36 103.34 26.6907 102.753 26.936C102.166 27.1813 101.494 27.304 100.737 27.304ZM100.737 25.4C101.281 25.4 101.74 25.2827 102.113 25.048C102.486 24.8027 102.769 24.4773 102.961 24.072C103.153 23.656 103.249 23.1867 103.249 22.664C103.249 22.1307 103.148 21.6613 102.945 21.256C102.753 20.84 102.465 20.5147 102.081 20.28C101.708 20.0347 101.26 19.912 100.737 19.912C100.214 19.912 99.7609 20.0347 99.3769 20.28C99.0035 20.5147 98.7155 20.84 98.5129 21.256C98.3102 21.6613 98.2089 22.1307 98.2089 22.664C98.2089 23.1867 98.3049 23.656 98.4969 24.072C98.6995 24.4773 98.9875 24.8027 99.3609 25.048C99.7342 25.2827 100.193 25.4 100.737 25.4Z" fill="#22A7F0"></path><path d="M111.02 27.288C110.412 27.288 109.852 27.176 109.34 26.952C108.828 26.728 108.386 26.4133 108.012 26.008C107.639 25.6027 107.351 25.1333 107.148 24.6C106.946 24.056 106.844 23.4693 106.844 22.84V22.504C106.844 21.8853 106.94 21.304 107.132 20.76C107.335 20.216 107.612 19.7413 107.964 19.336C108.327 18.9307 108.759 18.616 109.26 18.392C109.772 18.1573 110.338 18.04 110.956 18.04C111.639 18.04 112.236 18.1893 112.748 18.488C113.271 18.776 113.687 19.2133 113.996 19.8C114.306 20.3867 114.476 21.1227 114.508 22.008L113.852 21.24V15.32H116.076V27H114.316V23.304H114.7C114.668 24.1893 114.487 24.9307 114.156 25.528C113.826 26.1147 113.388 26.5573 112.844 26.856C112.311 27.144 111.703 27.288 111.02 27.288ZM111.516 25.416C111.954 25.416 112.354 25.32 112.716 25.128C113.079 24.9253 113.367 24.6373 113.58 24.264C113.804 23.88 113.916 23.432 113.916 22.92V22.28C113.916 21.768 113.804 21.3413 113.58 21C113.356 20.648 113.063 20.3813 112.7 20.2C112.338 20.008 111.943 19.912 111.516 19.912C111.036 19.912 110.61 20.0293 110.236 20.264C109.874 20.488 109.586 20.808 109.372 21.224C109.17 21.64 109.068 22.1253 109.068 22.68C109.068 23.2347 109.175 23.72 109.388 24.136C109.602 24.5413 109.89 24.856 110.252 25.08C110.626 25.304 111.047 25.416 111.516 25.416Z" fill="#22A7F0"></path><path d="M121.568 27.272C120.565 27.272 119.786 26.9413 119.232 26.28C118.688 25.6187 118.416 24.6373 118.416 23.336V18.296H120.64V23.528C120.64 24.0613 120.789 24.488 121.088 24.808C121.386 25.1173 121.792 25.272 122.304 25.272C122.816 25.272 123.232 25.1067 123.552 24.776C123.882 24.4453 124.048 23.9973 124.048 23.432V18.296H126.272V27H124.512V23.304H124.688C124.688 24.1787 124.576 24.9093 124.352 25.496C124.128 26.0827 123.792 26.5253 123.344 26.824C122.896 27.1227 122.336 27.272 121.664 27.272H121.568Z" fill="#22A7F0"></path><path d="M132.602 27.112C131.802 27.112 131.141 27.0107 130.618 26.808C130.106 26.5947 129.723 26.2427 129.467 25.752C129.211 25.2507 129.083 24.5787 129.083 23.736L129.098 15.864H131.178L131.163 23.88C131.163 24.3067 131.275 24.6373 131.499 24.872C131.733 25.096 132.064 25.208 132.49 25.208H133.85V27.112H132.602ZM127.706 19.944V18.312H133.85V19.944H127.706Z" fill="#22A7F0"></path><path d="M139.846 27.304C139.078 27.304 138.401 27.1813 137.814 26.936C137.228 26.6907 136.732 26.36 136.326 25.944C135.921 25.5173 135.612 25.0373 135.398 24.504C135.196 23.9707 135.094 23.416 135.094 22.84V22.504C135.094 21.9067 135.201 21.3413 135.414 20.808C135.638 20.264 135.953 19.784 136.358 19.368C136.774 18.9413 137.276 18.6107 137.862 18.376C138.449 18.1307 139.11 18.008 139.846 18.008C140.582 18.008 141.244 18.1307 141.83 18.376C142.417 18.6107 142.913 18.9413 143.318 19.368C143.734 19.784 144.049 20.264 144.262 20.808C144.476 21.3413 144.582 21.9067 144.582 22.504V22.84C144.582 23.416 144.476 23.9707 144.262 24.504C144.06 25.0373 143.756 25.5173 143.35 25.944C142.945 26.36 142.449 26.6907 141.862 26.936C141.276 27.1813 140.604 27.304 139.846 27.304ZM139.846 25.4C140.39 25.4 140.849 25.2827 141.222 25.048C141.596 24.8027 141.878 24.4773 142.07 24.072C142.262 23.656 142.358 23.1867 142.358 22.664C142.358 22.1307 142.257 21.6613 142.054 21.256C141.862 20.84 141.574 20.5147 141.19 20.28C140.817 20.0347 140.369 19.912 139.846 19.912C139.324 19.912 138.87 20.0347 138.486 20.28C138.113 20.5147 137.825 20.84 137.622 21.256C137.42 21.6613 137.318 22.1307 137.318 22.664C137.318 23.1867 137.414 23.656 137.606 24.072C137.809 24.4773 138.097 24.8027 138.47 25.048C138.844 25.2827 139.302 25.4 139.846 25.4Z" fill="#22A7F0"></path><path d="M146.53 27V18.312H148.29V21.992H148.242C148.242 20.744 148.508 19.8 149.042 19.16C149.575 18.52 150.359 18.2 151.394 18.2H151.714V20.136H151.106C150.359 20.136 149.778 20.3387 149.362 20.744C148.956 21.1387 148.754 21.7147 148.754 22.472V27H146.53Z" fill="#22A7F0"></path><path d="M157.027 27.304C156.28 27.304 155.624 27.176 155.059 26.92C154.504 26.664 154.04 26.3227 153.667 25.896C153.304 25.4587 153.027 24.9733 152.835 24.44C152.654 23.9067 152.563 23.3627 152.563 22.808V22.504C152.563 21.928 152.654 21.3733 152.835 20.84C153.027 20.296 153.304 19.816 153.667 19.4C154.04 18.9733 154.499 18.6373 155.043 18.392C155.587 18.136 156.216 18.008 156.931 18.008C157.87 18.008 158.654 18.216 159.283 18.632C159.923 19.0373 160.403 19.576 160.723 20.248C161.043 20.9093 161.203 21.624 161.203 22.392V23.192H153.507V21.832H159.811L159.123 22.504C159.123 21.9493 159.043 21.4747 158.883 21.08C158.723 20.6853 158.478 20.3813 158.147 20.168C157.827 19.9547 157.422 19.848 156.931 19.848C156.44 19.848 156.024 19.96 155.683 20.184C155.342 20.408 155.08 20.7333 154.899 21.16C154.728 21.576 154.643 22.0773 154.643 22.664C154.643 23.208 154.728 23.6933 154.899 24.12C155.07 24.536 155.331 24.8667 155.683 25.112C156.035 25.3467 156.483 25.464 157.027 25.464C157.571 25.464 158.014 25.3573 158.355 25.144C158.696 24.92 158.915 24.648 159.011 24.328H161.059C160.931 24.9253 160.686 25.448 160.323 25.896C159.96 26.344 159.496 26.6907 158.931 26.936C158.376 27.1813 157.742 27.304 157.027 27.304Z" fill="#22A7F0"></path><path d="M166.213 27.272C165.018 27.272 164.08 27.0213 163.397 26.52C162.725 26.008 162.373 25.304 162.341 24.408H164.341C164.373 24.7067 164.538 24.9787 164.837 25.224C165.136 25.4693 165.605 25.592 166.245 25.592C166.778 25.592 167.2 25.496 167.509 25.304C167.829 25.112 167.989 24.8507 167.989 24.52C167.989 24.232 167.866 24.0027 167.621 23.832C167.386 23.6613 166.981 23.5493 166.405 23.496L165.637 23.416C164.666 23.3093 163.92 23.032 163.397 22.584C162.874 22.136 162.613 21.5387 162.613 20.792C162.613 20.1947 162.762 19.6933 163.061 19.288C163.36 18.8827 163.77 18.5787 164.293 18.376C164.826 18.1627 165.434 18.056 166.117 18.056C167.184 18.056 168.048 18.2907 168.709 18.76C169.37 19.2293 169.717 19.9173 169.749 20.824H167.749C167.728 20.5253 167.578 20.2693 167.301 20.056C167.024 19.8427 166.624 19.736 166.101 19.736C165.632 19.736 165.269 19.8267 165.013 20.008C164.757 20.1893 164.629 20.424 164.629 20.712C164.629 20.9893 164.73 21.2027 164.933 21.352C165.146 21.5013 165.488 21.6027 165.957 21.656L166.725 21.736C167.749 21.8427 168.549 22.1253 169.125 22.584C169.712 23.0427 170.005 23.6613 170.005 24.44C170.005 25.016 169.845 25.5173 169.525 25.944C169.216 26.36 168.778 26.6853 168.213 26.92C167.648 27.1547 166.981 27.272 166.213 27.272Z" fill="#22A7F0"></path><defs><linearGradient id="paint0_linear_196_6" x1="194.753" y1="-0.847608" x2="181.45" y2="68.3212" gradientUnits="userSpaceOnUse"><stop offset="0.15" stop-color="#22A7F0"></stop><stop offset="0.88" stop-color="#5946F0"></stop></linearGradient><linearGradient id="paint1_linear_196_6" x1="194.753" y1="-0.847608" x2="181.45" y2="68.3212" gradientUnits="userSpaceOnUse"><stop offset="0.15" stop-color="#22A7F0"></stop><stop offset="0.88" stop-color="#5946F0"></stop></linearGradient></defs></svg>