<svg xmlns="http://www.w3.org/2000/svg" width="186" height="41" viewBox="0 0 186 41" fill="none"><path d="M0 20.5C0 9.17816 9.17816 0 20.5 0H165.5C176.822 0 186 9.17816 186 20.5C186 31.8218 176.822 41 165.5 41H20.5C9.17816 41 0 31.8218 0 20.5Z" fill="#171A28"></path><path d="M6 20.5C6 11.9396 12.9396 5 21.5 5C30.0604 5 37 11.9396 37 20.5C37 29.0604 30.0604 36 21.5 36C12.9396 36 6 29.0604 6 20.5Z" fill="url(#paint0_linear_196_5)"></path><path d="M65.472 27V15.32H67.744V27H65.472Z" fill="#22A7F0"></path><path d="M70.4827 27V18.312H72.2428V22.04H72.0827C72.0827 21.1547 72.2001 20.4187 72.4348 19.832C72.6694 19.2347 73.0161 18.7867 73.4747 18.488C73.9441 18.1893 74.5254 18.04 75.2188 18.04H75.3148C76.3494 18.04 77.1334 18.376 77.6667 19.048C78.2001 19.7093 78.4668 20.7013 78.4668 22.024V27H76.2428V21.832C76.2428 21.2987 76.0881 20.8667 75.7787 20.536C75.4801 20.2053 75.0641 20.04 74.5307 20.04C73.9867 20.04 73.5441 20.2107 73.2028 20.552C72.8721 20.8827 72.7067 21.3307 72.7067 21.896V27H70.4827Z" fill="#22A7F0"></path><path d="M81.2738 27V18.312H83.4977V27H81.2738ZM80.0577 19.976V18.312H83.4977V19.976H80.0577ZM82.0898 17.272C81.6524 17.272 81.3271 17.16 81.1137 16.936C80.9111 16.7013 80.8098 16.408 80.8098 16.056C80.8098 15.704 80.9111 15.416 81.1137 15.192C81.3271 14.968 81.6524 14.856 82.0898 14.856C82.5271 14.856 82.8471 14.968 83.0498 15.192C83.2524 15.416 83.3538 15.704 83.3538 16.056C83.3538 16.408 83.2524 16.7013 83.0498 16.936C82.8471 17.16 82.5271 17.272 82.0898 17.272Z" fill="#22A7F0"></path><path d="M89.9169 27.304C89.1595 27.304 88.5035 27.176 87.9489 26.92C87.4049 26.664 86.9462 26.3227 86.5729 25.896C86.2102 25.4693 85.9382 24.9893 85.7569 24.456C85.5755 23.9227 85.4849 23.3787 85.4849 22.824V22.52C85.4849 21.9333 85.5755 21.3733 85.7569 20.84C85.9489 20.296 86.2315 19.816 86.6049 19.4C86.9782 18.9733 87.4369 18.6373 87.9809 18.392C88.5355 18.136 89.1755 18.008 89.9009 18.008C90.6582 18.008 91.3355 18.1573 91.9329 18.456C92.5302 18.744 93.0049 19.1493 93.3569 19.672C93.7195 20.1947 93.9222 20.8027 93.9649 21.496H91.8049C91.7515 21.048 91.5595 20.6747 91.2289 20.376C90.9089 20.0773 90.4662 19.928 89.9009 19.928C89.4102 19.928 88.9995 20.0453 88.6689 20.28C88.3489 20.5147 88.1089 20.84 87.9489 21.256C87.7889 21.6613 87.7089 22.1307 87.7089 22.664C87.7089 23.176 87.7835 23.64 87.9329 24.056C88.0929 24.472 88.3329 24.7973 88.6529 25.032C88.9835 25.2667 89.4049 25.384 89.9169 25.384C90.3009 25.384 90.6315 25.3147 90.9089 25.176C91.1862 25.0373 91.4049 24.8453 91.5649 24.6C91.7355 24.3547 91.8422 24.0773 91.8849 23.768H94.0449C94.0022 24.472 93.7942 25.0907 93.4209 25.624C93.0582 26.1467 92.5729 26.5573 91.9649 26.856C91.3675 27.1547 90.6849 27.304 89.9169 27.304Z" fill="#22A7F0"></path><path d="M96.2425 27V18.312H98.4665V27H96.2425ZM95.0265 19.976V18.312H98.4665V19.976H95.0265ZM97.0585 17.272C96.6212 17.272 96.2958 17.16 96.0825 16.936C95.8798 16.7013 95.7785 16.408 95.7785 16.056C95.7785 15.704 95.8798 15.416 96.0825 15.192C96.2958 14.968 96.6212 14.856 97.0585 14.856C97.4958 14.856 97.8158 14.968 98.0185 15.192C98.2212 15.416 98.3225 15.704 98.3225 16.056C98.3225 16.408 98.2212 16.7013 98.0185 16.936C97.8158 17.16 97.4958 17.272 97.0585 17.272Z" fill="#22A7F0"></path><path d="M106.294 27V24.424H105.926V21.56C105.926 21.0587 105.803 20.6853 105.558 20.44C105.312 20.1947 104.934 20.072 104.422 20.072C104.155 20.072 103.835 20.0773 103.462 20.088C103.088 20.0987 102.71 20.1147 102.326 20.136C101.952 20.1467 101.616 20.1627 101.318 20.184V18.296C101.563 18.2747 101.84 18.2533 102.15 18.232C102.459 18.2107 102.774 18.2 103.094 18.2C103.424 18.1893 103.734 18.184 104.022 18.184C104.918 18.184 105.659 18.3013 106.246 18.536C106.843 18.7707 107.291 19.1387 107.59 19.64C107.899 20.1413 108.054 20.7973 108.054 21.608V27H106.294ZM103.494 27.224C102.864 27.224 102.31 27.112 101.83 26.888C101.36 26.664 100.992 26.344 100.726 25.928C100.47 25.512 100.342 25.0107 100.342 24.424C100.342 23.784 100.496 23.2613 100.806 22.856C101.126 22.4507 101.568 22.1467 102.134 21.944C102.71 21.7413 103.382 21.64 104.15 21.64H106.166V22.968H104.118C103.606 22.968 103.211 23.096 102.934 23.352C102.667 23.5973 102.534 23.9173 102.534 24.312C102.534 24.7067 102.667 25.0267 102.934 25.272C103.211 25.5173 103.606 25.64 104.118 25.64C104.427 25.64 104.71 25.5867 104.966 25.48C105.232 25.3627 105.451 25.1707 105.622 24.904C105.803 24.6267 105.904 24.2533 105.926 23.784L106.47 24.408C106.416 25.016 106.267 25.528 106.022 25.944C105.787 26.36 105.456 26.68 105.03 26.904C104.614 27.1173 104.102 27.224 103.494 27.224Z" fill="#22A7F0"></path><path d="M110.436 27V18.312H112.196V22.04H112.036C112.036 21.1547 112.153 20.4187 112.388 19.832C112.623 19.2347 112.969 18.7867 113.428 18.488C113.897 18.1893 114.479 18.04 115.172 18.04H115.268C116.303 18.04 117.087 18.376 117.62 19.048C118.153 19.7093 118.42 20.7013 118.42 22.024V27H116.196V21.832C116.196 21.2987 116.041 20.8667 115.732 20.536C115.433 20.2053 115.017 20.04 114.484 20.04C113.94 20.04 113.497 20.2107 113.156 20.552C112.825 20.8827 112.66 21.3307 112.66 21.896V27H110.436Z" fill="#22A7F0"></path><path d="M124.587 27.112C123.787 27.112 123.126 27.0107 122.603 26.808C122.091 26.5947 121.707 26.2427 121.451 25.752C121.195 25.2507 121.067 24.5787 121.067 23.736L121.083 15.864H123.163L123.147 23.88C123.147 24.3067 123.259 24.6373 123.483 24.872C123.718 25.096 124.048 25.208 124.475 25.208H125.835V27.112H124.587ZM119.691 19.944V18.312H125.835V19.944H119.691Z" fill="#22A7F0"></path><path d="M131.543 27.304C130.796 27.304 130.14 27.176 129.575 26.92C129.02 26.664 128.556 26.3227 128.183 25.896C127.82 25.4587 127.543 24.9733 127.351 24.44C127.169 23.9067 127.079 23.3627 127.079 22.808V22.504C127.079 21.928 127.169 21.3733 127.351 20.84C127.543 20.296 127.82 19.816 128.183 19.4C128.556 18.9733 129.015 18.6373 129.559 18.392C130.103 18.136 130.732 18.008 131.447 18.008C132.385 18.008 133.169 18.216 133.799 18.632C134.439 19.0373 134.919 19.576 135.239 20.248C135.559 20.9093 135.719 21.624 135.719 22.392V23.192H128.023V21.832H134.327L133.639 22.504C133.639 21.9493 133.559 21.4747 133.399 21.08C133.239 20.6853 132.993 20.3813 132.663 20.168C132.343 19.9547 131.937 19.848 131.447 19.848C130.956 19.848 130.54 19.96 130.199 20.184C129.857 20.408 129.596 20.7333 129.415 21.16C129.244 21.576 129.159 22.0773 129.159 22.664C129.159 23.208 129.244 23.6933 129.415 24.12C129.585 24.536 129.847 24.8667 130.199 25.112C130.551 25.3467 130.999 25.464 131.543 25.464C132.087 25.464 132.529 25.3573 132.871 25.144C133.212 24.92 133.431 24.648 133.527 24.328H135.575C135.447 24.9253 135.201 25.448 134.839 25.896C134.476 26.344 134.012 26.6907 133.447 26.936C132.892 27.1813 132.257 27.304 131.543 27.304Z" fill="#22A7F0"></path><path d="M140.729 27.272C139.534 27.272 138.595 27.0213 137.913 26.52C137.241 26.008 136.889 25.304 136.857 24.408H138.857C138.889 24.7067 139.054 24.9787 139.352 25.224C139.651 25.4693 140.12 25.592 140.76 25.592C141.294 25.592 141.715 25.496 142.025 25.304C142.345 25.112 142.505 24.8507 142.505 24.52C142.505 24.232 142.382 24.0027 142.137 23.832C141.902 23.6613 141.497 23.5493 140.921 23.496L140.152 23.416C139.182 23.3093 138.435 23.032 137.913 22.584C137.39 22.136 137.128 21.5387 137.128 20.792C137.128 20.1947 137.278 19.6933 137.577 19.288C137.875 18.8827 138.286 18.5787 138.809 18.376C139.342 18.1627 139.95 18.056 140.633 18.056C141.699 18.056 142.563 18.2907 143.225 18.76C143.886 19.2293 144.232 19.9173 144.264 20.824H142.264C142.243 20.5253 142.094 20.2693 141.816 20.056C141.539 19.8427 141.139 19.736 140.617 19.736C140.147 19.736 139.785 19.8267 139.529 20.008C139.273 20.1893 139.145 20.424 139.145 20.712C139.145 20.9893 139.246 21.2027 139.449 21.352C139.662 21.5013 140.003 21.6027 140.473 21.656L141.24 21.736C142.264 21.8427 143.065 22.1253 143.641 22.584C144.227 23.0427 144.521 23.6613 144.521 24.44C144.521 25.016 144.36 25.5173 144.04 25.944C143.731 26.36 143.294 26.6853 142.729 26.92C142.163 27.1547 141.497 27.272 140.729 27.272Z" fill="#22A7F0"></path><path d="M27.5714 20.2355C28.1429 20.5753 28.1429 21.4247 27.5714 21.7645L17.2857 27.8804C16.7143 28.2202 16 27.7955 16 27.1159V14.8841C16 14.2045 16.7143 13.7798 17.2857 14.1196L27.5714 20.2355Z" fill="white"></path><defs><linearGradient id="paint0_linear_196_5" x1="182.95" y1="-0.847608" x2="168.855" y2="67.9941" gradientUnits="userSpaceOnUse"><stop offset="0.15" stop-color="#22A7F0"></stop><stop offset="0.88" stop-color="#5946F0"></stop></linearGradient></defs></svg>