<svg xmlns="http://www.w3.org/2000/svg" width="97" height="86" viewBox="0 0 97 86" fill="none"><path d="M94 0H3.94219C1.17726 0 -0.115657 3.42283 1.95879 5.2508L92.0166 84.6087C93.9541 86.316 97 84.9403 97 82.3579V3C97 1.34315 95.6569 0 94 0Z" fill="url(#paint0_linear_196_8)"></path><path d="M67.0555 12.7174C67.3667 11.8218 68.6333 11.8218 68.9446 12.7174L71.5334 20.165C71.6707 20.5601 72.0394 20.8279 72.4576 20.8365L80.3406 20.9971C81.2886 21.0164 81.6799 22.221 80.9244 22.7938L74.6413 27.5573C74.308 27.81 74.1672 28.2434 74.2883 28.6438L76.5715 36.1907C76.8461 37.0982 75.8214 37.8426 75.0432 37.3011L68.5712 32.7975C68.2279 32.5586 67.7721 32.5586 67.4288 32.7975L60.9569 37.3011C60.1786 37.8426 59.154 37.0982 59.4285 36.1907L61.7117 28.6438C61.8329 28.2434 61.692 27.81 61.3587 27.5573L55.0756 22.7938C54.3201 22.221 54.7115 21.0164 55.6594 20.9971L63.5425 20.8365C63.9606 20.8279 64.3293 20.5601 64.4667 20.165L67.0555 12.7174Z" fill="#0E1520"></path><defs><linearGradient id="paint0_linear_196_8" x1="84.1915" y1="64.0228" x2="5.21322" y2="8.68367" gradientUnits="userSpaceOnUse"><stop stop-color="#FFFEFE"></stop><stop offset="0.283823" stop-color="#D66B00"></stop><stop offset="0.49" stop-color="#FFB469"></stop><stop offset="0.688662" stop-color="#E1852A"></stop><stop offset="1" stop-color="#FFCD9B"></stop></linearGradient></defs></svg>