<svg xmlns="http://www.w3.org/2000/svg" xmlns:xlink="http://www.w3.org/1999/xlink" id="Camada_2" data-name="Camada 2" viewBox="0 0 607.55 240.89"><defs><style>      .cls-1 {        fill: #303030;      }      .cls-2 {        fill: url(#Gradiente_sem_nome);      }      .cls-3 {        fill: #f2f2f2;      }      .cls-4 {        isolation: isolate;      }    </style><linearGradient id="Gradiente_sem_nome" data-name="Gradiente sem nome" x1="236.94" y1="246.98" x2="26.8" y2="20.74" gradientTransform="translate(0 242) scale(1 -1)" gradientUnits="userSpaceOnUse"><stop offset=".15" stop-color="#22a7f0"></stop><stop offset=".88" stop-color="#5946f0"></stop></linearGradient></defs><g id="Camada_2-2" data-name="Camada 2"><g><g><g class="cls-4"><g class="cls-4"><path class="cls-1" d="M304.55,67.4v7.41h-10.06v30.56h-9.25v-30.56h-10.06v-7.41h29.37Z"></path><path class="cls-1" d="M328.56,105.36l-7.9-14.33h-2.22v14.33h-9.25v-37.96h15.52c2.99,0,5.54.52,7.65,1.57,2.11,1.05,3.69,2.48,4.73,4.3,1.05,1.82,1.57,3.85,1.57,6.08,0,2.52-.71,4.78-2.14,6.76-1.42,1.98-3.52,3.39-6.3,4.22l8.76,15.03h-10.44ZM318.45,84.48h5.73c1.69,0,2.96-.41,3.81-1.24.85-.83,1.27-2,1.27-3.51s-.42-2.58-1.27-3.41c-.85-.83-2.12-1.24-3.81-1.24h-5.73v9.41Z"></path><path class="cls-1" d="M368.1,98.65h-14.17l-2.27,6.71h-9.68l13.74-37.96h10.71l13.74,37.96h-9.79l-2.27-6.71ZM367.34,59.77l-13.03,5.46v-6.38l13.03-6.27v7.19ZM365.72,91.52l-4.71-13.9-4.65,13.9h9.36Z"></path><path class="cls-1" d="M409.03,67.4v7.41h-15.47v8h11.57v7.19h-11.57v15.36h-9.25v-37.96h24.71Z"></path><path class="cls-1" d="M423.15,74.8v7.68h12.38v7.14h-12.38v8.33h14.01v7.41h-23.25v-37.96h23.25v7.41h-14.01Z"></path><path class="cls-1" d="M468.36,79.4c-.68-1.26-1.67-2.23-2.95-2.89-1.28-.67-2.79-1-4.52-1-2.99,0-5.39.98-7.19,2.95-1.8,1.97-2.7,4.59-2.7,7.87,0,3.5.95,6.23,2.84,8.19,1.89,1.96,4.5,2.95,7.81,2.95,2.27,0,4.19-.58,5.76-1.73,1.57-1.15,2.71-2.81,3.43-4.98h-11.74v-6.81h20.12v8.6c-.68,2.31-1.85,4.45-3.49,6.44-1.64,1.98-3.72,3.59-6.25,4.81-2.52,1.23-5.37,1.84-8.54,1.84-3.75,0-7.09-.82-10.03-2.46-2.94-1.64-5.23-3.92-6.87-6.84-1.64-2.92-2.46-6.25-2.46-10s.82-7.09,2.46-10.03c1.64-2.94,3.92-5.23,6.84-6.87,2.92-1.64,6.25-2.46,10-2.46,4.54,0,8.37,1.1,11.49,3.3,3.12,2.2,5.18,5.25,6.19,9.14h-10.22Z"></path><path class="cls-1" d="M492.51,103.25c-2.97-1.66-5.34-3.97-7.08-6.95-1.75-2.97-2.62-6.32-2.62-10.03s.87-7.05,2.62-10c1.75-2.96,4.11-5.26,7.08-6.92,2.97-1.66,6.25-2.49,9.82-2.49s6.84.83,9.82,2.49c2.97,1.66,5.32,3.97,7.03,6.92,1.71,2.96,2.57,6.29,2.57,10s-.87,7.06-2.6,10.03-4.08,5.29-7.03,6.95c-2.96,1.66-6.22,2.49-9.79,2.49s-6.84-.83-9.82-2.49ZM509.59,94.27c1.82-2.02,2.73-4.69,2.73-8s-.91-6.03-2.73-8.03-4.25-3-7.27-3-5.51.99-7.33,2.97c-1.82,1.98-2.73,4.67-2.73,8.06s.91,6.03,2.73,8.03,4.26,3,7.33,3,5.45-1.01,7.27-3.03Z"></path><path class="cls-1" d="M563.05,69.77c2.99,1.59,5.31,3.81,6.95,6.68,1.64,2.87,2.46,6.17,2.46,9.92s-.82,7.01-2.46,9.9c-1.64,2.88-3.97,5.12-6.98,6.71-3.01,1.59-6.5,2.38-10.46,2.38h-14.22v-37.96h14.22c4,0,7.5.79,10.49,2.38ZM560.13,94.49c1.95-1.91,2.92-4.61,2.92-8.11s-.97-6.22-2.92-8.17-4.67-2.92-8.17-2.92h-4.38v22.06h4.38c3.5,0,6.22-.96,8.17-2.87Z"></path><path class="cls-1" d="M586.9,74.8v7.68h12.38v7.14h-12.38v8.33h14.01v7.41h-23.25v-37.96h23.25v7.41h-14.01Z"></path></g></g><g class="cls-4"><g class="cls-4"><path class="cls-1" d="M300.87,139.58c-2.13,1.98-5.32,2.97-9.57,2.97h-7.63v16.12h-3.79v-37.8h11.41c4.22,0,7.4.99,9.54,2.97,2.15,1.98,3.22,4.62,3.22,7.9s-1.06,5.86-3.19,7.84ZM300.17,131.74c0-2.52-.7-4.43-2.11-5.73-1.41-1.3-3.66-1.95-6.76-1.95h-7.63v15.25h7.63c5.91,0,8.87-2.52,8.87-7.57Z"></path><path class="cls-1" d="M314.17,155.59h13.57v3.08h-17.36v-37.8h3.79v34.72Z"></path><path class="cls-1" d="M355.06,149.69h-17.2l-3.3,8.98h-4l13.79-37.32h4.27l13.74,37.32h-4l-3.3-8.98ZM353.92,146.56l-7.46-20.44-7.46,20.44h14.93Z"></path><path class="cls-1" d="M390.53,120.87v3.14h-10.49v34.67h-3.79v-34.67h-10.55v-3.14h24.82Z"></path><path class="cls-1" d="M418.44,149.69h-17.2l-3.3,8.98h-4l13.79-37.32h4.27l13.74,37.32h-4l-3.3-8.98ZM417.3,146.56l-7.46-20.44-7.46,20.44h14.93Z"></path><path class="cls-1" d="M452.24,120.87v3.14h-16.66v14.11h14.06v3.14h-14.06v17.41h-3.79v-37.8h20.44Z"></path><path class="cls-1" d="M465.92,156.59c-2.85-1.64-5.09-3.93-6.73-6.87-1.64-2.94-2.46-6.26-2.46-9.98s.82-7.04,2.46-9.98c1.64-2.94,3.88-5.23,6.73-6.87,2.85-1.64,6.02-2.46,9.52-2.46s6.72.82,9.57,2.46c2.85,1.64,5.08,3.93,6.71,6.87,1.62,2.94,2.43,6.27,2.43,9.98s-.81,7.04-2.43,9.98c-1.62,2.94-3.86,5.23-6.71,6.87-2.85,1.64-6.04,2.46-9.57,2.46s-6.67-.82-9.52-2.46ZM483.01,153.8c2.23-1.3,4-3.16,5.3-5.6s1.95-5.25,1.95-8.46-.65-6.02-1.95-8.44c-1.3-2.42-3.07-4.27-5.3-5.57-2.24-1.3-4.76-1.95-7.57-1.95s-5.34.65-7.57,1.95c-2.24,1.3-4,3.16-5.3,5.57-1.3,2.42-1.95,5.23-1.95,8.44s.65,6.03,1.95,8.46,3.06,4.3,5.3,5.6c2.23,1.3,4.76,1.95,7.57,1.95s5.33-.65,7.57-1.95Z"></path><path class="cls-1" d="M521.19,158.67l-9.36-15.79h-6.98v15.79h-3.79v-37.8h11.36c4.22,0,7.42,1.01,9.6,3.03,2.18,2.02,3.27,4.67,3.27,7.95,0,2.74-.78,5.07-2.35,7s-3.89,3.18-6.95,3.76l9.73,16.06h-4.54ZM504.86,139.8h7.62c2.96,0,5.18-.72,6.68-2.16,1.5-1.44,2.25-3.37,2.25-5.79s-.72-4.41-2.16-5.76c-1.44-1.35-3.71-2.03-6.81-2.03h-7.57v15.74Z"></path><path class="cls-1" d="M569.75,121.35v37.32h-3.79v-29.8l-13.3,29.8h-2.76l-13.3-29.69v29.69h-3.79v-37.32h4l14.44,32.34,14.44-32.34h4.06Z"></path><path class="cls-1" d="M600.25,149.69h-17.2l-3.3,8.98h-4l13.79-37.32h4.27l13.74,37.32h-4l-3.3-8.98ZM599.12,146.56l-7.46-20.44-7.46,20.44h14.93Z"></path></g></g></g><g><path class="cls-2" d="M74.34,0C33.35,0,0,33.35,0,74.34v92.21c0,40.99,33.35,74.34,74.34,74.34h92.21c40.99,0,74.34-33.35,74.34-74.34V0H74.34Z"></path><g><path class="cls-3" d="M173.08,98.3h-18.11l-.52-2.41c-1.83-8.55-8.57-15.14-16.85-17.03-1.59-.37-3.23-.56-4.91-.56h-16.34l-.07,38.66h-18.02v-38.66h-24.99v-18.05h59.42c2.69,0,5.33.27,7.89.79,16.4,3.31,29.55,16.74,31.98,33.78l.5,3.48h.02Z"></path><path class="cls-3" d="M73.29,188.53h18.02v-37.95c0-2.23,1.81-4.04,4.04-4.04h37.36c19.51,0,36.19-13.93,39.66-33.12l.65-3.59h-18.23l-.61,2.25c-2.63,9.66-11.45,16.41-21.46,16.41h-42.31c-8.17,0-15.51,5.91-17.11,13.68h0v46.36h-.01Z"></path></g></g></g></g></svg>